<?xml version="1.0"?>
<svg xmlns="http://www.w3.org/2000/svg" xmlns:xlink="http://www.w3.org/1999/xlink" xmlns:svgjs="http://svgjs.com/svgjs" version="1.1" width="512" height="512" x="0" y="0" viewBox="0 0 512 512" style="enable-background:new 0 0 512 512" xml:space="preserve" class=""><g><g xmlns="http://www.w3.org/2000/svg"><g><path d="m461.781 145.068h-70.221v-39.536c0-27.691-22.529-50.22-50.22-50.22h-103.336c-5.523 0-10 4.477-10 10s4.477 10 10 10h103.336c16.664 0 30.22 13.557 30.22 30.22v39.536h-200.904c-27.691 0-50.219 22.528-50.219 50.219v100.656h-33.647c-14.088 0-27.701 5.09-38.33 14.333l-28.46 24.736v-229.479c0-16.664 13.557-30.22 30.22-30.22h99.805c5.523 0 10-4.477 10-10s-4.477-10-10-10h-99.805c-27.691 0-50.22 22.528-50.22 50.22v251.42c0 8.38 10.205 13.073 16.56 7.547l45.021-39.131c6.991-6.079 15.943-9.426 25.208-9.426h33.647v39.539c0 27.691 22.528 50.219 50.219 50.219h254.507c9.263 0 18.215 3.347 25.207 9.423l45.07 39.174c6.355 5.524 16.56.834 16.56-7.547v-251.464c.001-27.691-22.527-50.219-50.218-50.219zm30.219 279.741-28.51-24.78c-10.631-9.24-24.243-14.328-38.327-14.328h-254.507c-16.663 0-30.219-13.556-30.219-30.219v-49.481c0-.02.003-.038.003-.058v-110.66c0-16.658 13.557-30.21 30.22-30.21h210.9c.029 0 .058-.004.087-.004h80.134c16.663 0 30.219 13.556 30.219 30.219z" fill="#ee434c" data-original="#000000" style="" class=""/><path d="m186.55 69.141c2.094 5.027 8.008 7.488 13.05 5.41 5.035-2.075 7.496-8.036 5.41-13.06-2.09-5.033-8.018-7.497-13.06-5.41-5.049 2.09-7.464 8.025-5.4 13.06z" fill="#ee434c" data-original="#000000" style="" class=""/></g></g></g></svg>
