<?xml version="1.0"?>
<svg xmlns="http://www.w3.org/2000/svg" xmlns:xlink="http://www.w3.org/1999/xlink" xmlns:svgjs="http://svgjs.com/svgjs" version="1.1" width="512" height="512" x="0" y="0" viewBox="0 0 480 480.00006" style="enable-background:new 0 0 512 512" xml:space="preserve" class=""><g><path xmlns="http://www.w3.org/2000/svg" d="m365.925781 477.40625c1.527344-1.648438 2.292969-3.863281 2.105469-6.101562l-32-368c-.363281-4.144532-3.839844-7.320313-8-7.304688h-56v-1.382812c0-52.167969-39.480469-94.617188-88-94.617188s-88 42.449219-88 94.617188v1.382812h-56c-4.160156-.015625-7.640625 3.160156-8 7.304688l-32 368c-.195312 2.238281.558594 4.457031 2.082031 6.113281 1.519531 1.652343 3.667969 2.589843 5.917969 2.582031h352c2.242188 0 4.378906-.941406 5.894531-2.59375zm-253.894531-382.789062c0-43.351563 32.296875-78.617188 72-78.617188s72 35.265625 72 78.617188v1.382812h-144zm-64.664062 17.382812h48.664062v24c0 4.417969 3.582031 8 8 8s8-3.582031 8-8v-24h144v24c0 4.417969 3.582031 8 8 8s8-3.582031 8-8v-24h48.664062l14.605469 168h-87.476562c5.292969-6.882812 8.175781-15.316406 8.207031-24 .050781-17.253906-11.003906-32.582031-27.386719-37.988281-16.386719-5.40625-34.386719.339843-44.613281 14.234375-8.433594-11.664063-22.503906-17.878906-36.804688-16.25-14.304687 1.628906-26.617187 10.847656-32.210937 24.113281-5.589844 13.261719-3.59375 28.511719 5.222656 39.890625h-87.480469zm192.664062 144c0 13.253906-10.746094 24-24 24s-24-10.746094-24-24 10.746094-24 24-24 24 10.746094 24 24zm-55.792969 24h-.414062c.070312-.089844.140625-.160156.207031-.246094.0625.085938.136719.15625.207031.246094zm-8.207031-24c0 13.253906-10.746094 24-24 24s-24-10.746094-24-24 10.746094-24 24-24 24 10.746094 24 24zm-159.273438 208 14.617188-168.128906c.230469 0 .421875.128906.65625.128906h141.597656c-9.5625 20.695312-30.84375 33.402344-53.597656 32-4.417969 0-8 3.582031-8 8s3.582031 8 8 8c24.082031.789062 47.011719-10.300781 61.351562-29.664062 8.757813 26.832031 29.113282 61.664062 66.648438 61.664062 4.417969 0 8-3.582031 8-8s-3.582031-8-8-8c-34.882812 0-51.03125-43.71875-54.976562-64h142.976562c.230469 0 .421875-.113281.65625-.128906l14.613281 168.128906zm0 0" fill="#ee434c" data-original="#000000" style="" class=""/></g></svg>
