<?xml version="1.0"?>
<svg xmlns="http://www.w3.org/2000/svg" xmlns:xlink="http://www.w3.org/1999/xlink" xmlns:svgjs="http://svgjs.com/svgjs" version="1.1" width="512" height="512" x="0" y="0" viewBox="0 0 512 512" style="enable-background:new 0 0 512 512" xml:space="preserve" class=""><g><path xmlns="http://www.w3.org/2000/svg" d="m288.667969 184.238281h-57.667969c-9.914062 0-9.929688 15 0 15h57.667969c9.914062 0 9.929687-15 0-15zm0 0" fill="#ee434c" data-original="#000000" style="" class=""/><path xmlns="http://www.w3.org/2000/svg" d="m288.667969 220.738281h-57.667969c-9.914062 0-9.929688 15 0 15h57.667969c9.914062 0 9.929687-15 0-15zm0 0" fill="#ee434c" data-original="#000000" style="" class=""/><path xmlns="http://www.w3.org/2000/svg" d="m15 207.421875v-190.933594c0-.820312.667969-1.488281 1.488281-1.488281h93.863281v105.480469c0 12.640625 14.59375 19.664062 24.472657 11.832031l30.074219-23.828125c.035156-.027344.085937-.027344.121093-.003906l30.078125 23.835937c9.882813 7.824219 24.472656.808594 24.472656-11.835937v-105.480469h100.609376c.816406 0 1.484374.667969 1.484374 1.488281v26.027344c0 9.914063 15 9.929687 15 0v-26.027344c0-9.09375-7.394531-16.488281-16.484374-16.488281h-303.691407c-9.09375 0-16.488281 7.394531-16.488281 16.488281v190.933594c0 9.914063 15 9.929687 15 0zm189.582031-86.898437c-.195312.222656.761719.648437-30.246093-23.796876-5.519532-4.375-13.230469-4.375-18.75 0l-30.101563 23.867188c-.246094-.007812-.070313-35.25-.132813-105.59375h79.21875zm0 0" fill="#ee434c" data-original="#000000" style="" class=""/><path xmlns="http://www.w3.org/2000/svg" d="m94.324219 305.390625c-13.597657 0-24.664063 11.0625-24.664063 24.664063 0 13.601562 11.0625 24.664062 24.664063 24.664062 13.601562 0 24.664062-11.0625 24.664062-24.664062 0-13.601563-11.0625-24.664063-24.664062-24.664063zm0 34.328125c-12.789063 0-12.773438-19.328125 0-19.328125 12.792969 0 12.777343 19.328125 0 19.328125zm0 0" fill="#ee434c" data-original="#000000" style="" class=""/><path xmlns="http://www.w3.org/2000/svg" d="m357.867188 229.921875h70.542968c5 0 9.628906-2.707031 12.082032-7.0625 2.453124-4.355469 2.367187-9.714844-.222657-13.992187l-25.589843-42.238282c-2.5-4.117187-7.042969-6.679687-11.859376-6.679687h-44.953124c-7.644532 0-13.867188 6.222656-13.867188 13.867187v42.238282c0 7.644531 6.222656 13.867187 13.867188 13.867187zm1.132812-54.972656h43.179688l24.21875 39.972656h-67.398438zm0 0" fill="#ee434c" data-original="#000000" style="" class=""/><path xmlns="http://www.w3.org/2000/svg" d="m495.960938 207.15625-26.144532-7.125c-.117187-.03125-.230468-.0625-.351562-.085938-1.484375-.328124-2.753906-1.214843-3.574219-2.496093l-37.414063-58.347657c-3.828124-5.96875-10.347656-9.53125-17.4375-9.53125h-74.375v-57.054687c0-9.914063-15-9.933594-15 0v186.625h-306.664062v-21.71875c0-9.914063-15-9.929687-15 0v79.21875c0 11.53125 9.382812 20.914063 20.914062 20.914063h21.257813c3.652344 25.511718 25.648437 45.1875 52.152344 45.1875 26.507812 0 48.503906-19.675782 52.15625-45.1875h198.757812c3.652344 25.511718 25.648438 45.1875 52.15625 45.1875 26.503907 0 48.503907-19.675782 52.152344-45.1875h41.738281c11.421875 0 20.714844-9.292969 20.714844-20.714844v-89.503906c0-9.726563-6.585938-17.996094-16.039062-20.179688zm-84.921876-62.585938c1.957032 0 3.753907.980469 4.8125 2.628907l37.414063 58.347656c2.9375 4.585937 7.464844 7.773437 12.761719 9l26.144531 7.125c.117187.03125.234375.058594.351563.085937 2.636718.582032 4.480468 2.878907 4.480468 5.578126v62.472656h-17.558594c-11.628906 0-21.09375 9.464844-21.09375 21.097656v11.648438h-8.800781c-3.652343-25.511719-25.648437-45.1875-52.15625-45.1875-26.503906 0-48.5 19.671874-52.152343 45.1875h-8.574219v-177.984376zm-396.039062 172.070313v-42.5h306.664062v48.414063h-175.183593c-3.652344-25.511719-25.648438-45.1875-52.15625-45.1875-26.503907 0-48.503907 19.671874-52.152344 45.1875h-21.257813c-3.261718 0-5.914062-2.652344-5.914062-5.914063zm79.324219 51.097656c-20.777344 0-37.6875-16.902343-37.6875-37.683593s16.90625-37.6875 37.6875-37.6875 37.6875 16.90625 37.6875 37.6875-16.90625 37.683593-37.6875 37.683593zm303.070312 0c-20.78125 0-37.6875-16.902343-37.6875-37.683593s16.90625-37.6875 37.6875-37.6875 37.6875 16.90625 37.6875 37.6875-16.90625 37.683593-37.6875 37.683593zm93.890625-45.183593h-17.933594v-11.648438c0-3.359375 2.734376-6.097656 6.09375-6.097656h17.554688v12.03125c0 3.152344-2.5625 5.714844-5.714844 5.714844zm0 0" fill="#ee434c" data-original="#000000" style="" class=""/><path xmlns="http://www.w3.org/2000/svg" d="m397.394531 305.390625c-13.601562 0-24.664062 11.0625-24.664062 24.664063 0 13.601562 11.0625 24.664062 24.664062 24.664062 13.601563 0 24.664063-11.0625 24.664063-24.664062 0-13.601563-11.0625-24.664063-24.664063-24.664063zm0 34.328125c-12.792969 0-12.777343-19.328125 0-19.328125 12.792969 0 12.777344 19.328125 0 19.328125zm0 0" fill="#ee434c" data-original="#000000" style="" class=""/></g></svg>
